<svg version="1.1" xmlns="http://www.w3.org/2000/svg" style="display: block;" viewBox="0 0 2048 2048" width="1024" height="1024" preserveAspectRatio="none">
<path transform="translate(0,0)" fill="rgb(2,52,141)" d="M 1243.01 530.901 C 1248.53 526.741 1255.4 521.877 1260.99 518.182 C 1398.86 426.954 1594.43 350.048 1557.29 609.933 C 1555.54 622.217 1553.81 636.792 1551.25 649.44 C 1551.22 647.87 1551.14 646.301 1551.04 644.734 C 1539.8 492.407 1469.12 455.334 1350.4 556.186 C 1342.74 562.69 1334.23 569.311 1327.65 576.919 C 1435.68 660.774 1500.24 763.489 1517.64 900.479 C 1532.44 1018.49 1499.89 1137.55 1427.1 1231.61 C 1351.2 1329.43 1244.11 1393.98 1120.48 1411.04 C 1045.1 1421.45 970.312 1412.7 899.091 1386.53 C 880.654 1379.76 857.662 1365.85 839.81 1364.42 C 813.017 1362.29 793.036 1387.91 770.825 1401.58 C 711.773 1437.93 644.37 1416.91 593.54 1376.57 C 584.69 1369.55 575.91 1361.71 567.237 1354.79 C 637.24 1391.67 703.667 1372.13 762.188 1322.22 C 774.322 1311.87 787.834 1289.64 797.667 1275.95 C 811.135 1257 825.237 1238.51 839.95 1220.5 C 858.644 1197.79 878.024 1175.65 898.063 1154.12 C 907.094 1144.52 923.364 1129.36 930.793 1120.38 C 920.117 1115.88 890.093 1078.73 878.084 1071.88 C 832.529 1115.5 766.209 1154.18 710.012 1183.3 C 699.321 1188.84 679.598 1198.73 668.418 1201.26 C 661.858 1191.65 655.839 1180.4 650.18 1170.18 C 563.791 1014.28 581.829 811.512 692.107 671.946 C 701.273 660.345 711.2 647.208 721.836 636.858 C 726.692 637.816 732.107 638.977 736.686 636.393 C 749.24 629.309 761.646 621.957 774.075 614.653 L 855.35 566.437 L 909.2 534.856 C 919.452 528.834 935.327 519.991 944.136 512.586 C 945.25 509.629 946.269 506.104 947.236 503.057 C 1043.76 479.336 1152.32 490.573 1243.01 530.901 z"/>
<path transform="translate(0,0)" fill="rgb(22,151,83)" d="M 1243.01 530.901 C 1248.53 526.741 1255.4 521.877 1260.99 518.182 C 1398.86 426.954 1594.43 350.048 1557.29 609.933 C 1555.54 622.217 1553.81 636.792 1551.25 649.44 C 1551.22 647.87 1551.14 646.301 1551.04 644.734 C 1539.8 492.407 1469.12 455.334 1350.4 556.186 C 1342.74 562.69 1334.23 569.311 1327.65 576.919 C 1299.62 607.697 1273.74 632.166 1247.8 666.519 C 1196.88 662.63 1152.23 667.231 1107.14 693.967 C 1114.95 700.951 1134.64 717.787 1141.22 725.138 L 1150.26 734.167 C 1148.1 735.207 1142.12 739.221 1141.03 739.474 L 1136.54 742.035 C 1123.18 728.698 1106.97 714.978 1092.87 701.564 C 985.731 772.539 908.525 849.234 860.597 971.977 C 853.323 990.607 844.257 1017.76 840.248 1037.24 L 839.957 1038.69 C 848.501 1045.52 856.844 1052.61 864.974 1059.93 C 868.67 1063.26 874.585 1069.32 878.084 1071.88 C 832.529 1115.5 766.209 1154.18 710.012 1183.3 C 699.321 1188.84 679.598 1198.73 668.418 1201.26 C 661.858 1191.65 655.839 1180.4 650.18 1170.18 C 563.791 1014.28 581.829 811.512 692.107 671.946 C 701.273 660.345 711.2 647.208 721.836 636.858 C 726.692 637.816 732.107 638.977 736.686 636.393 C 749.24 629.309 761.646 621.957 774.075 614.653 L 855.35 566.437 L 909.2 534.856 C 919.452 528.834 935.327 519.991 944.136 512.586 C 945.25 509.629 946.269 506.104 947.236 503.057 C 1043.76 479.336 1152.32 490.573 1243.01 530.901 z"/>
<path transform="translate(0,0)" fill="rgb(13,92,120)" d="M 1141.03 739.474 C 1138.18 738.093 1139.03 738.833 1136.96 736.609 C 1136.84 733.066 1139.69 728.578 1141.22 725.138 L 1150.26 734.167 C 1148.1 735.207 1142.12 739.221 1141.03 739.474 z"/>
<path transform="translate(0,0)" fill="rgb(254,254,254)" d="M 851.503 911.198 C 860.704 910.492 866.622 910.762 875.925 911.2 C 853.575 955.722 840.468 985.142 829.597 1034.33 C 785.563 1035.86 754.071 1092.96 737.372 1128.74 L 729.002 1146.77 C 729.582 1087.17 742.346 1016.48 775.214 965.946 C 794.511 936.277 816.985 918.674 851.503 911.198 z"/>
<path transform="translate(0,0)" fill="rgb(254,254,254)" d="M 1024.71 534.365 C 1036.07 529.076 1040.94 524.855 1050.69 516.72 C 1047.75 520.721 1042.48 527.518 1040.11 531.515 C 1033.48 541.757 1032.9 545.482 1039.61 555.999 C 1042.11 560.054 1047.16 566.554 1050.13 570.606 C 1040.89 563.336 1034.86 558.889 1024.3 553.812 C 1011.97 559.298 1006.83 563.898 996.233 572.204 C 1000.72 566.812 1003.9 562.989 1007.77 557.166 C 1016.25 546.208 1014.71 541.906 1007.87 530.978 L 996.925 517.058 C 1006.03 523.896 1013.88 530.537 1024.71 534.365 z"/>
<path transform="translate(0,0)" fill="rgb(230,253,244)" d="M 1073.64 631.568 C 1076.41 632.811 1082.75 636.764 1085.7 638.487 C 1089.42 636.277 1093.32 633.458 1096.93 630.991 L 1089.42 642.839 C 1091.47 646.074 1095.89 651.726 1095.93 654.854 C 1092.75 652.525 1088.78 650.122 1085.42 647.969 C 1081.11 650.487 1076.4 653.738 1072.18 656.501 C 1075.97 651.457 1077.52 648.94 1080.61 643.537 C 1078.63 639.283 1076.13 635.548 1073.64 631.568 z"/>
<path transform="translate(0,0)" fill="rgb(254,254,254)" d="M 1276.76 512.603 C 1279.24 510.866 1282.49 510.638 1285.2 512.008 C 1287.9 513.379 1289.64 516.126 1289.71 519.161 C 1289.79 522.195 1288.19 525.025 1285.55 526.527 C 1281.72 528.708 1276.86 527.492 1274.5 523.767 C 1272.15 520.042 1273.14 515.124 1276.76 512.603 z"/>
<path transform="translate(0,0)" fill="rgb(230,253,244)" d="M 1461.78 472.656 L 1471.71 478.018 C 1472.83 477.223 1473.93 476.124 1474.97 475.177 L 1476.85 475.586 L 1477.52 473.734 L 1478.08 473.799 L 1477.26 476.342 C 1476.08 479.948 1475.67 480.006 1476.17 484.001 C 1478.26 487.132 1479.12 487.459 1479.4 490.865 C 1470.19 485.062 1469.28 486.552 1460.76 491.963 C 1463.01 488.8 1465.17 485.346 1467.29 482.081 L 1461.78 472.656 z"/>
<path transform="translate(0,0)" fill="rgb(230,253,244)" d="M 1094.34 518.592 C 1096.49 517.708 1098.95 518.06 1100.77 519.512 C 1102.59 520.963 1103.48 523.286 1103.09 525.58 C 1102.71 527.874 1101.11 529.778 1098.91 530.555 C 1095.64 531.717 1092.03 530.052 1090.79 526.805 C 1089.55 523.558 1091.13 519.913 1094.34 518.592 z"/>
<path transform="translate(0,0)" fill="rgb(230,253,244)" d="M 913.905 660.433 C 916.054 659.441 918.576 659.722 920.453 661.162 C 922.331 662.603 923.255 664.966 922.853 667.298 C 922.451 669.63 920.789 671.547 918.537 672.276 C 915.331 673.314 911.871 671.674 910.644 668.536 C 909.417 665.397 910.846 661.846 913.905 660.433 z"/>
<path transform="translate(0,0)" fill="rgb(230,253,244)" d="M 1198.84 540.148 L 1199.4 541.106 C 1191.89 552.773 1198.37 548.967 1197.23 554.181 C 1189.33 553.388 1190.16 552.589 1183.12 556.827 L 1183.03 556.584 C 1184.18 553.522 1185.11 552.683 1187.03 549.995 C 1187.18 547.192 1186.1 545.838 1184.78 543.281 L 1184.21 542.181 L 1184.59 541.399 L 1190.55 544.214 C 1194.92 543.933 1194.57 543.139 1198.84 540.148 z"/>
<path transform="translate(0,0)" fill="rgb(230,253,244)" d="M 1327.32 490.593 C 1330.55 489.61 1333.97 491.353 1335.08 494.539 C 1336.18 497.725 1334.57 501.214 1331.43 502.438 C 1329.29 503.273 1326.86 502.87 1325.1 501.388 C 1323.35 499.906 1322.54 497.583 1323 495.332 C 1323.47 493.081 1325.12 491.263 1327.32 490.593 z"/>
<path transform="translate(0,0)" fill="rgb(230,253,244)" d="M 1010.96 672.241 C 1014.25 671.772 1017.3 674.082 1017.74 677.383 C 1018.18 680.684 1015.84 683.711 1012.54 684.122 C 1009.27 684.528 1006.29 682.227 1005.86 678.966 C 1005.42 675.706 1007.7 672.705 1010.96 672.241 z"/>
<path transform="translate(0,0)" fill="rgb(230,253,244)" d="M 1250.88 613.378 C 1252.89 612.616 1255.16 613.014 1256.79 614.414 C 1258.42 615.814 1259.15 617.994 1258.7 620.095 C 1258.25 622.196 1256.69 623.883 1254.63 624.493 C 1251.6 625.389 1248.41 623.73 1247.4 620.74 C 1246.4 617.749 1247.93 614.496 1250.88 613.378 z"/>
<path transform="translate(0,0)" fill="rgb(230,253,244)" d="M 1231.24 534.176 C 1234.12 533.265 1237.19 534.858 1238.11 537.736 C 1239.03 540.614 1237.44 543.689 1234.56 544.61 C 1231.68 545.534 1228.59 543.941 1227.67 541.056 C 1226.76 538.171 1228.35 535.089 1231.24 534.176 z"/>
<path transform="translate(0,0)" fill="rgb(230,253,244)" d="M 1139.51 507.61 C 1141.04 506.598 1143.01 506.519 1144.62 507.403 C 1146.23 508.287 1147.22 509.99 1147.18 511.826 C 1147.15 513.663 1146.11 515.331 1144.47 516.161 C 1142.13 517.346 1139.27 516.498 1137.95 514.228 C 1136.63 511.958 1137.32 509.055 1139.51 507.61 z"/>
<path transform="translate(0,0)" fill="rgb(254,254,254)" d="M 839.957 1038.69 L 840.248 1037.24 C 844.257 1017.76 853.323 990.607 860.597 971.977 C 908.525 849.234 985.731 772.539 1092.87 701.564 C 1106.97 714.978 1123.18 728.698 1136.54 742.035 C 1181.49 787.998 1237.77 833.483 1283.23 878.825 C 1232.19 991.426 1118.98 1099.03 1003.14 1142.82 C 991.011 1147.41 979.408 1151.02 966.984 1154.62 C 962.179 1149.43 936.216 1120.79 931.524 1120.17 L 930.793 1120.38 C 920.117 1115.88 890.093 1078.73 878.084 1071.88 C 874.585 1069.32 868.67 1063.26 864.974 1059.93 C 856.844 1052.61 848.501 1045.52 839.957 1038.69 z"/>
<path transform="translate(0,0)" fill="rgb(2,52,141)" d="M 1091.79 825.523 C 1123.31 820.066 1153.29 841.201 1158.74 872.725 C 1164.18 904.249 1143.04 934.219 1111.51 939.658 C 1080 945.095 1050.05 923.961 1044.6 892.45 C 1039.15 860.939 1060.28 830.977 1091.79 825.523 z"/>
<path transform="translate(0,0)" fill="rgb(254,254,254)" d="M 1107.14 693.967 C 1152.23 667.231 1196.88 662.63 1247.8 666.519 C 1260.85 668.476 1273.41 670.341 1286.24 673.633 C 1296.99 733.944 1305.7 801.424 1286.55 861.094 C 1241.51 819.178 1195.79 775.232 1150.26 734.167 L 1141.22 725.138 C 1134.64 717.787 1114.95 700.951 1107.14 693.967 z"/>
<path transform="translate(0,0)" fill="rgb(254,254,254)" d="M 1090.7 1108.79 C 1093.15 1110.73 1093.16 1115.06 1093.36 1117.95 C 1100.73 1222.68 949.576 1268.46 865.448 1272.23 L 865.01 1272.36 L 864.557 1271.8 C 907.85 1245.61 968.028 1221.4 973.432 1163.67 C 1015.16 1151.66 1054.74 1133.14 1090.7 1108.79 z"/>
<path transform="translate(0,0)" fill="rgb(254,254,254)" d="M 1359.97 701.491 C 1366.08 698.602 1371.66 694.531 1377.27 690.735 C 1372.48 696.731 1369.81 700.267 1365.81 706.754 C 1368.96 712.77 1370.83 715.269 1374.83 720.711 C 1374.11 720.641 1363.3 714.282 1361.27 713.285 C 1354.65 716.293 1350.75 719.145 1344.74 723.225 C 1349.64 717.063 1351.41 714.681 1355.21 707.846 C 1351.84 701.161 1350.26 698.595 1345.92 692.487 C 1349.07 693.592 1356.82 699.314 1359.97 701.491 z"/>
<path transform="translate(0,0)" fill="rgb(254,254,254)" d="M 1339.19 786.292 C 1342.56 785.46 1346 787.344 1347.12 790.626 C 1348.23 793.909 1346.65 797.5 1343.47 798.892 C 1341.16 799.904 1338.48 799.528 1336.54 797.921 C 1334.59 796.313 1333.72 793.748 1334.28 791.289 C 1334.84 788.83 1336.74 786.897 1339.19 786.292 z"/>
<path transform="translate(0,0)" fill="rgb(254,254,254)" d="M 1338.29 602.597 C 1340.64 602.021 1343.11 602.798 1344.71 604.613 C 1346.31 606.428 1346.77 608.981 1345.9 611.238 C 1345.03 613.495 1342.98 615.083 1340.58 615.36 C 1337.17 615.751 1334.05 613.428 1333.44 610.052 C 1332.84 606.677 1334.96 603.413 1338.29 602.597 z"/>
<path transform="translate(0,0)" fill="rgb(2,52,141)" d="M 925.757 354.378 L 927.324 354.272 L 926.982 355.748 C 913.385 368.311 899.416 383.097 886.201 396.265 L 828.793 452.892 C 817.957 463.667 799.857 484.702 787.21 492.172 C 779.304 496.843 636.473 526.403 616.775 529.192 C 629.322 524.788 641.999 517.238 653.782 510.79 C 669.754 501.998 685.778 493.299 701.852 484.695 C 723.841 472.97 746.884 461.869 768.482 449.43 C 772.939 446.863 773.527 442.928 774.527 438.226 C 768.608 435.366 764.737 434.614 758.631 437.554 C 739.904 446.569 721.485 457.167 703.232 467.109 L 606.536 519.048 C 648.699 475.734 687.573 424.842 729.72 381.138 C 733.199 377.531 786.215 372.339 794.542 371.298 C 838.246 365.395 881.985 359.754 925.757 354.378 z"/>
<path transform="translate(0,0)" fill="rgb(2,52,141)" d="M 880.554 425.577 C 885.704 430.579 924.585 495.242 929.239 503.739 L 807.478 575.327 L 761.342 602.665 C 754.004 607.004 737.876 617.745 730.425 618.714 C 716.396 590.681 693.975 560.803 679.679 532.056 C 719.648 524.053 756.641 516.555 796.571 507.75 L 843.489 461.91 C 854.887 450.604 868.774 435.935 880.554 425.577 z"/>
<path transform="translate(0,0)" fill="rgb(22,151,83)" d="M 564.655 1063.99 L 565.34 1064.51 C 564.544 1067.99 557.01 1085.92 555.51 1090.08 C 488.217 1277 601.167 1266.99 733.945 1207.95 C 736.245 1206.93 767.572 1192.23 769.826 1192.14 L 769.656 1192.79 C 764.771 1195.55 759.861 1198.34 755.339 1201.68 C 742.18 1211.4 727.67 1219.28 713.5 1227.39 C 706.121 1231.3 698.425 1235.21 690.202 1239.39 C 650.997 1259.34 508.469 1329.86 488.443 1260.92 C 477.071 1221.77 516.297 1144.06 536.709 1109.09 C 543.524 1097.41 556.795 1077.16 564.655 1063.99 z"/>
<path transform="translate(0,0)" fill="rgb(2,52,141)" d="M 548.38 811.504 C 564.3 810.211 579.686 817.578 588.66 830.791 C 597.634 844.004 598.81 861.022 591.739 875.344 C 584.668 889.666 570.442 899.079 554.495 899.988 C 530.249 901.37 509.401 882.995 507.726 858.767 C 506.052 834.539 524.175 813.471 548.38 811.504 z M 555.697 874.433 C 582.321 863.97 574.062 837.186 548.751 836.005 C 541.689 838.582 536.169 841 532.738 848.337 C 530.757 852.523 530.55 857.332 532.165 861.672 C 535.923 871.632 545.975 874.63 555.697 874.433 z"/>
<path transform="translate(0,0)" fill="rgb(2,52,141)" d="M 1026.88 384.377 C 1029.06 384.454 1031.24 384.619 1033.41 384.87 C 1042.62 385.94 1045.92 389.157 1051.52 396.098 C 1052.66 394.852 1053.84 393.645 1055.05 392.478 C 1061.25 386.604 1065.84 385.424 1074.13 385.721 C 1094.52 386.453 1095.45 405.279 1094.85 420.879 C 1094.17 438.437 1093.69 455.655 1092.93 473.037 L 1069.26 471.871 C 1070.25 453.263 1071.62 430.768 1070.68 412.08 C 1070.53 409.283 1069.54 408.979 1067.86 407.887 C 1064.63 408.215 1066.09 407.64 1063.48 409.994 C 1061.53 415.975 1061.32 442.858 1061.07 450.751 C 1060.76 457.942 1060.42 464.763 1060.56 471.967 C 1052.34 471.995 1044.54 471.44 1036.35 470.922 C 1037.79 453.103 1038.24 435.325 1039.15 417.48 C 1039.38 413.159 1038.13 406.904 1032.73 407.366 C 1026.6 413.25 1028 458.528 1027.56 470.898 C 1019.83 470.474 1011.68 470.527 1003.9 470.456 C 1004.4 453.23 1002.77 406.331 1011.44 393.467 C 1015.24 387.822 1020.45 385.763 1026.88 384.377 z"/>
<path transform="translate(0,0)" fill="rgb(2,52,141)" d="M 1152.72 398.413 C 1177.07 395.577 1199.08 413.087 1201.8 437.453 C 1204.52 461.819 1186.9 483.747 1162.52 486.343 C 1138.31 488.922 1116.57 471.453 1113.87 447.255 C 1111.17 423.058 1128.53 401.229 1152.72 398.413 z M 1162.43 461.758 C 1173.26 459.068 1179.82 448.065 1177.04 437.256 C 1174.26 426.448 1163.2 419.978 1152.42 422.849 C 1141.76 425.687 1135.38 436.586 1138.13 447.267 C 1140.88 457.948 1151.72 464.416 1162.43 461.758 z"/>
<path transform="translate(0,0)" fill="rgb(2,52,141)" d="M 756.974 1526.23 C 800.49 1522.27 814.281 1554.18 799.944 1592.13 C 796.323 1601.71 785.061 1607.84 775.447 1610.79 C 753.799 1613.45 732.023 1607.84 726.587 1583.41 C 720.845 1557.61 728.562 1533.13 756.974 1526.23 z M 770.785 1596.9 C 776.45 1594.8 781.795 1591.17 783.834 1585.34 C 791.272 1564.05 787.547 1538.13 760.437 1540.07 C 742.157 1546.28 740.68 1566.19 745.293 1582.83 C 748.526 1594.49 759.201 1598.79 770.785 1596.9 z"/>
<path transform="translate(0,0)" fill="rgb(2,52,141)" d="M 667.563 1526.33 C 689.271 1524.99 708.963 1528.83 714.39 1553.08 C 720.37 1579.82 714 1603.6 685.228 1610.86 C 662.227 1612.06 644.172 1609.05 638.135 1583.32 C 632.259 1558.27 640.455 1532.82 667.563 1526.33 z M 682.095 1597.51 C 699.404 1591.45 700.286 1568.41 695.186 1553.29 C 691.375 1542 682.564 1539.22 671.421 1540.14 C 649.312 1549.39 650.911 1578.86 663.378 1595.34 C 671.042 1597.74 673.829 1598.62 682.095 1597.51 z"/>
<path transform="translate(0,0)" fill="rgb(2,52,141)" d="M 1095.85 1526.3 C 1106.04 1525.78 1115.83 1525.05 1125.41 1530.08 C 1146.55 1541.18 1148.66 1575.19 1137.65 1594.02 C 1131.96 1603.75 1124.36 1608.42 1113.52 1610.92 C 1102.89 1611.39 1093.28 1612.36 1083.18 1607.2 C 1061.24 1595.99 1060.2 1561.57 1071.42 1542.5 C 1077.07 1532.9 1085.17 1528.69 1095.85 1526.3 z M 1109.99 1596.84 C 1134.02 1588.8 1134.65 1536.8 1099 1540.1 C 1092.41 1542.85 1088.34 1545.62 1085.95 1552.61 C 1078.79 1573.49 1082.86 1600.18 1109.99 1596.84 z"/>
<path transform="translate(0,0)" fill="rgb(2,52,141)" d="M 546.528 914.635 C 570.315 917.694 587.262 936.666 586.655 960.808 C 586.411 972.738 581.222 984.03 572.33 991.986 C 563.387 1000.13 551.536 1004.32 539.463 1003.6 C 508.586 1001.76 494.814 977.469 498.018 948.937 C 502.776 929.861 514.873 919.715 533.744 915.76 C 535.466 923.787 535.552 932.815 535.551 940.981 L 534.271 941.575 C 510.575 952.795 518.609 974.095 542.332 979.461 C 559.326 974.198 568.035 964.767 559.2 947.151 C 553.276 943.329 552.915 942.883 546.041 940.787 L 546.528 914.635 z"/>
<path transform="translate(0,0)" fill="rgb(2,52,141)" d="M 1431 1527.24 C 1449.92 1527.25 1488.19 1521.48 1486.29 1550.88 C 1485.86 1557.46 1480.91 1561.69 1476 1565.32 C 1490.63 1572.93 1494.83 1582.72 1488.18 1598.33 C 1475.3 1612.51 1452.6 1610.24 1434.88 1609.12 C 1433.9 1609.06 1430.86 1607.22 1430.82 1606.1 C 1430.26 1592.38 1427.16 1537.54 1431 1527.24 z M 1446.76 1596.77 C 1455.9 1597 1462.64 1598.04 1470.79 1593.89 C 1485.52 1575.11 1458.32 1573.43 1446.39 1573.94 C 1446.31 1581.85 1446.17 1588.89 1446.76 1596.77 z M 1446.88 1560.76 C 1454.09 1560.67 1461.74 1561.4 1467.98 1558.07 C 1475.3 1540.01 1459.63 1539.35 1446.52 1539.06 L 1446.88 1560.76 z"/>
<path transform="translate(0,0)" fill="rgb(2,52,141)" d="M 569.219 1527.43 C 589.233 1527.7 626.671 1520.86 622.793 1554.22 C 622.225 1559.11 617.174 1562.74 613.302 1565.09 C 627.35 1572.96 631.785 1582.74 624.565 1597.83 C 611.943 1612.77 585.135 1610.46 566.912 1608.82 C 564.828 1588.47 567.098 1557.36 566.394 1536 C 566.266 1532.13 566.586 1529.9 569.219 1527.43 z M 582.228 1597.14 C 590.924 1597.61 599.216 1598.57 607.008 1594.15 C 619.46 1574.48 594.96 1573.58 582.332 1573.71 C 582.261 1581.45 582.091 1589.42 582.228 1597.14 z M 582.471 1560.56 C 589.532 1560.66 596.552 1561.43 602.758 1558.06 C 612.79 1540.24 594.297 1539.98 582.353 1539.94 C 582.176 1547.26 582.084 1553.26 582.471 1560.56 z"/>
<path transform="translate(0,0)" fill="rgb(2,52,141)" d="M 1395.98 1527.13 C 1401.13 1526.91 1406.65 1527.11 1411.83 1527.19 C 1412 1530.07 1412.33 1540.32 1412.05 1542.5 C 1410.64 1553.44 1415.23 1603.64 1409.33 1610.46 C 1391 1612.21 1389.62 1607.12 1381.03 1591.73 C 1373.58 1578.38 1366.36 1564.72 1359.02 1551.29 C 1357.95 1568.89 1358.75 1591.81 1358.99 1609.77 C 1353.96 1610.15 1349 1610.88 1344.44 1608.93 C 1341.01 1604.76 1343.32 1539.54 1343.86 1529.8 C 1344.59 1529 1345.32 1528.2 1346.05 1527.4 C 1357.54 1526.73 1364.67 1525.16 1370.97 1536.62 C 1379.88 1552.83 1388.19 1569.34 1396.65 1585.79 C 1395.54 1568.64 1396.05 1544.84 1395.98 1527.13 z"/>
<path transform="translate(0,0)" fill="rgb(2,52,141)" d="M 1290.05 1526.5 C 1301.32 1525.47 1313.74 1525.36 1323.55 1531.9 C 1327.7 1534.66 1327.8 1542.48 1324.87 1546.1 C 1322.69 1546.39 1307.28 1540.93 1301.78 1540.35 C 1262.1 1536.18 1262.2 1598.83 1300.17 1597.45 C 1303.96 1597.32 1305.87 1597.02 1308.63 1594.24 C 1309.79 1590.3 1309.18 1580.98 1309.07 1576.36 C 1303.44 1575.83 1298.94 1577.13 1293.82 1575.13 C 1290.43 1571.62 1289.94 1567.16 1293.29 1563.55 C 1297.6 1563.36 1323.69 1561.15 1324.78 1565.47 C 1327.17 1574.9 1327.21 1594.95 1324.68 1604.36 C 1316.87 1614.63 1284.68 1612.87 1274.58 1606.55 C 1242.28 1586.32 1250.39 1534.7 1290.05 1526.5 z"/>
<path transform="translate(0,0)" fill="rgb(2,52,141)" d="M 990.379 1526.18 C 994.365 1526.22 999.022 1526.98 1003.03 1527.51 L 1003.21 1560.09 C 1013.3 1559.98 1023.69 1560.13 1033.81 1560.16 C 1033.9 1555.53 1034.04 1549.9 1033.6 1545.35 C 1031.83 1527.28 1035.03 1526.41 1051.07 1527.23 C 1051.7 1548.62 1050.98 1570.33 1051.38 1591.75 C 1051.49 1597.46 1051.54 1603.27 1050.56 1608.9 C 1047.79 1610.92 1045.12 1610.48 1041.56 1610.55 C 1038.41 1610.44 1037.71 1610.78 1035.28 1608.84 C 1032.42 1602.89 1033.81 1582.31 1033.78 1573.97 L 1002.84 1573.98 C 1002.66 1585.59 1002.91 1597.87 1002.95 1609.53 C 996.365 1610.51 992.643 1610.53 986.011 1610.62 C 985.359 1588.35 985.367 1551.97 986.322 1528.58 C 986.371 1527.4 988.664 1526.92 990.379 1526.18 z"/>
<path transform="translate(0,0)" fill="rgb(2,52,141)" d="M 1162.86 1527.33 C 1177.03 1527.34 1196.51 1524.63 1207.97 1534.48 C 1224.33 1548.52 1214.57 1575.33 1194.61 1579.94 C 1188.99 1581.24 1184.5 1581.2 1178.76 1581.3 C 1177.35 1581.17 1177.31 1581.37 1175.86 1581.74 C 1174.57 1587.32 1175.05 1603.48 1175.05 1609.82 C 1169.61 1610.72 1164.75 1611.47 1159.59 1609.5 C 1156.27 1604.93 1158.41 1542.11 1158.39 1531.51 C 1158.38 1528.93 1160.92 1528.19 1162.86 1527.33 z M 1175.24 1568.09 C 1183.27 1567.99 1187.86 1568.41 1194.89 1564.2 C 1204.53 1545.72 1192.08 1539.63 1175.11 1539.88 C 1175.15 1549.23 1175.08 1558.75 1175.24 1568.09 z"/>
<path transform="translate(0,0)" fill="rgb(2,52,141)" d="M 824.352 1526.47 C 828.11 1526.52 832.229 1527.01 836.009 1527.35 C 835.776 1539.32 835.781 1551.3 836.024 1563.28 C 846.446 1551.51 852.098 1539.81 862.34 1528.8 C 865.068 1525.87 872.614 1526.83 876.345 1527.17 C 877.651 1528.03 878.512 1528.12 878.46 1529.36 C 878.121 1537.5 857.863 1558.98 852.669 1564.39 C 860.294 1575.12 867.687 1586.03 874.843 1597.08 C 877.726 1601.56 881.455 1605.01 877.693 1609.46 C 873.057 1611.01 868.065 1610.19 863.055 1609.86 C 855.762 1600.76 843.285 1580.1 835.845 1569.1 C 835.627 1582.89 835.48 1596.68 835.407 1610.47 C 829.721 1610.6 824.814 1610.16 819.18 1609.72 C 817.901 1601.21 817.204 1531.99 819.518 1527.47 L 824.352 1526.47 z"/>
<path transform="translate(0,0)" fill="rgb(2,52,141)" d="M 539.295 743.268 C 545.646 744.651 554.661 746.91 559.584 750.908 C 561.449 755.019 560.134 754.952 559.974 760.431 C 567.647 771.57 586.452 755.58 600.506 766.309 C 617.051 778.94 618.176 795.318 607.048 812.469 C 601.372 811.407 588.877 807.389 582.658 805.663 C 585.742 800.988 588.259 797.935 587.371 792.308 C 586.64 791.24 585.574 788.93 583.911 789.07 C 571.737 790.019 561.076 793.09 549.369 787.827 C 529.276 778.794 531.363 760.32 539.295 743.268 z"/>
<path transform="translate(0,0)" fill="rgb(2,52,141)" d="M 1249.63 429.389 C 1277.2 430.938 1271.68 439.432 1263.98 458.826 C 1228.79 438.372 1275.63 502.233 1221.23 507.482 C 1211.98 506.5 1206.18 503.003 1199.17 497.279 C 1202.41 489.803 1204.73 484.067 1207.35 476.375 C 1211.54 479.908 1213.07 481.636 1218.4 481.64 C 1233.35 473.721 1209.63 433.711 1249.63 429.389 z"/>
<path transform="translate(0,0)" fill="rgb(2,52,141)" d="M 938.322 1526.25 C 945.944 1525.54 954.707 1525.52 962.072 1527.93 C 967.866 1529.83 968.469 1539.52 965.923 1543.88 C 962.378 1544.54 935.339 1530.56 936.297 1549.82 C 940.782 1560.28 972.179 1564.56 973.335 1581.25 C 974.621 1599.84 964.658 1608.42 947.706 1611.39 C 939.111 1611.3 929.371 1611.39 921.73 1606.89 C 917.248 1604.25 916.032 1595.74 919.409 1591.85 C 926.839 1590.61 941.701 1606.58 953.663 1592.86 C 956.389 1583.78 949.393 1577.78 941.728 1575.55 C 914.485 1567.64 907.12 1535.98 938.322 1526.25 z"/>
<path transform="translate(0,0)" fill="rgb(2,52,141)" d="M 563.204 553.463 C 573.043 556.496 598.633 616.582 608.47 626.755 C 619.335 637.989 632.196 643.375 643.606 652.28 L 644.712 653.152 C 638.671 657.296 635.011 659.519 628.555 662.984 C 620.151 667.996 612.689 672.048 604.072 676.563 C 603.042 665.088 604.171 643.662 601.506 633.703 C 595.852 612.572 568.429 573.265 563.204 553.463 z"/>
<path transform="translate(0,0)" fill="rgb(2,52,141)" d="M 1109.37 1723.08 C 1102.8 1729.5 1098.81 1728 1090.83 1726.4 C 1084.2 1728.94 1091.23 1735.66 1086.46 1741.63 C 1082.55 1741.71 1084.09 1742.35 1081.39 1740.51 C 1080.43 1732.59 1080.63 1698.92 1081.32 1690.89 L 1083.02 1689.86 C 1095.74 1692.11 1098.78 1684.62 1109.79 1693.88 C 1112.04 1696.4 1115.02 1700.66 1117.74 1701.39 L 1119.53 1699.53 C 1118.87 1707.96 1118.57 1712.48 1119.96 1721.07 L 1117.64 1716.55 L 1115.8 1716.65 C 1113.61 1719.18 1112.14 1721.19 1109.37 1723.08 z M 1098.8 1722.2 C 1108.89 1713.5 1109.83 1695.67 1095.11 1694.64 C 1084.01 1701.66 1084.15 1720.4 1098.8 1722.2 z"/>
<path transform="translate(0,0)" fill="rgb(254,254,254)" d="M 1109.79 1693.88 C 1112.04 1696.4 1115.02 1700.66 1117.74 1701.39 L 1119.53 1699.53 C 1118.87 1707.96 1118.57 1712.48 1119.96 1721.07 L 1117.64 1716.55 L 1115.8 1716.65 C 1113.61 1719.18 1112.14 1721.19 1109.37 1723.08 C 1113.09 1711.2 1112.98 1705.84 1109.79 1693.88 z"/>
<path transform="translate(0,0)" fill="rgb(2,52,141)" d="M 1420.6 1688.49 L 1424.06 1689.27 C 1424.78 1690.11 1425.5 1690.95 1426.21 1691.79 C 1428.44 1693.36 1434.27 1688.61 1437.2 1688.68 C 1453.23 1689.05 1455.29 1714.1 1446.17 1723.65 C 1442.46 1727.53 1439.43 1727.26 1434.7 1727.61 C 1432.89 1727.24 1429.08 1726.08 1427.15 1725.55 C 1426.1 1726.62 1427.13 1735.76 1426.94 1739.16 C 1425.14 1742.21 1426.4 1741.11 1422.9 1742.4 L 1421.16 1741.45 C 1419.43 1736.95 1420.08 1694.95 1420.6 1688.49 z M 1437.19 1722.56 C 1447.92 1715 1446.9 1695.3 1434.96 1694.81 C 1434.21 1694.79 1433.46 1694.78 1432.71 1694.78 C 1423.24 1702.61 1422.75 1720.23 1437.19 1722.56 z"/>
<path transform="translate(0,0)" fill="rgb(2,52,141)" d="M 1468.74 1689.22 C 1497.06 1686.14 1498.52 1716.82 1479.72 1727.43 C 1452.83 1730.31 1448.6 1701 1468.74 1689.22 z M 1477.34 1722.41 C 1488.24 1714.55 1488.5 1694.85 1471.03 1694.86 C 1460.18 1704.45 1460.46 1721.08 1477.34 1722.41 z"/>
<path transform="translate(0,0)" fill="rgb(2,52,141)" d="M 1316.17 1689.11 C 1331.95 1688.03 1341.33 1695.17 1338.83 1713.34 C 1337.98 1719.58 1333.34 1724.39 1327.89 1727.51 C 1300.94 1730.6 1297.32 1700.64 1316.17 1689.11 z M 1324.88 1722.52 C 1335.86 1713.62 1335.66 1695.16 1318.83 1694.7 C 1309 1703.78 1308.64 1721.64 1324.88 1722.52 z"/>
<path transform="translate(0,0)" fill="rgb(2,52,141)" d="M 1348 1689.31 C 1352.78 1689.07 1370.36 1688.1 1372.51 1693.42 C 1376.37 1702.93 1365.15 1701.64 1374.62 1712.38 L 1375.82 1713.72 C 1376.35 1717.77 1375.93 1718.32 1374.63 1722.35 C 1366.69 1729.66 1357.71 1727.51 1347.62 1726.8 C 1347.15 1719.84 1345.83 1694.75 1348 1689.31 z M 1367.13 1721.22 C 1369.22 1717.15 1369.11 1718.65 1368.98 1714.43 C 1364.75 1709.54 1359.58 1711.26 1353.48 1710.16 C 1353.21 1714.04 1352.5 1717.35 1354.33 1720.72 C 1357.11 1722.71 1357.87 1723.05 1361.88 1722.4 C 1363.65 1722.13 1365.41 1721.73 1367.13 1721.22 z M 1353.34 1706.05 L 1365.53 1704.65 C 1366.84 1701.54 1367.48 1700.8 1366.69 1697.52 C 1362.62 1694 1359.18 1695.06 1353.64 1693.86 C 1353.57 1697.83 1353.58 1702.11 1353.34 1706.05 z"/>
<path transform="translate(0,0)" fill="rgb(2,52,141)" d="M 1500.71 1689.25 C 1507.67 1688.95 1520.15 1687.74 1525.02 1693.13 C 1527.31 1701.43 1518.41 1700.73 1526.62 1713.98 L 1527.09 1714.74 C 1527.26 1718.88 1526.54 1719.83 1524.91 1723.81 C 1516.07 1728.84 1509.96 1727.28 1499.53 1726.76 C 1499.08 1720.42 1497.65 1693.52 1500.71 1689.25 z M 1519.74 1720.98 C 1520.57 1717.12 1521.05 1716.3 1519.57 1712.6 C 1515.81 1709.04 1512.14 1709.79 1507 1709.93 L 1505.47 1709.97 C 1505.28 1713.84 1504.57 1717.83 1506.41 1721.06 C 1510.67 1723.9 1514.98 1722.39 1519.74 1720.98 z M 1517.66 1704.88 C 1519.01 1701.41 1519.54 1700.8 1518.57 1697.18 C 1514.55 1693.29 1511.77 1693.95 1505.93 1693.96 C 1505.45 1697.5 1504.49 1700.89 1506.01 1703.96 C 1509.69 1705.92 1513.08 1705.11 1517.66 1704.88 z"/>
<path transform="translate(0,0)" fill="rgb(2,52,141)" d="M 560.862 1717.32 C 562.313 1711.6 568.05 1686.63 574.952 1687.33 C 580.809 1691.67 584.867 1722.8 582.336 1726.86 C 578.097 1727.14 579.931 1727.65 576.536 1725.74 C 574.581 1718.21 574.104 1707.09 573.88 1699.34 L 573.715 1699.04 L 572.822 1699.13 C 570.088 1707 567.105 1718.94 563.565 1726.12 C 562.964 1727.33 562.153 1727.04 560.612 1727.16 C 553.872 1722.57 549.178 1701.91 546.821 1693.49 C 546.908 1701.31 548.001 1723.28 541.396 1727.04 L 539.463 1726.29 C 538.2 1719.75 541.358 1696.24 542.451 1688.83 C 545.727 1688.89 545.772 1688.74 548.816 1689.79 C 554.818 1695.09 555.987 1706.94 560.224 1715.97 L 560.862 1717.32 z"/>
<path transform="translate(0,0)" fill="rgb(2,52,141)" d="M 659.104 1689.18 C 661.445 1689.02 666.916 1688.5 669.05 1688.91 C 684.571 1691.88 680.321 1717.52 678.383 1727.53 C 674.829 1728.65 674.293 1725.08 673.195 1725.33 C 664.246 1727.41 663.752 1729.34 654.507 1726.07 C 642.862 1705.99 661.795 1709.67 671.432 1703.14 C 672.946 1699.67 672.734 1701.46 671.837 1697.58 C 671.112 1696.85 670.387 1696.13 669.663 1695.4 C 664.124 1695.92 657.393 1696.94 652.084 1696.52 L 652.202 1694.07 L 651.18 1695.34 L 652.435 1696.31 C 653.405 1691.59 653.538 1692.9 659.104 1689.18 z M 660.94 1722.67 C 668.848 1722.43 677.916 1716.88 671.862 1709.27 C 667.301 1710.65 662.938 1711.45 659.387 1714.45 C 657.739 1718.33 658.274 1719.1 660.94 1722.67 z"/>
<path transform="translate(0,0)" fill="rgb(2,52,141)" d="M 860.025 1689.14 C 866.801 1688.85 871.278 1688.25 877.243 1691.85 C 881.133 1696.42 880.451 1719.12 880.412 1725.67 C 878.929 1727.83 879.892 1727.09 877.261 1727.64 C 869.636 1720.41 868.601 1731.76 854.052 1725.48 C 843.206 1702.78 869.737 1708.3 875.02 1701.3 L 874.618 1699.48 C 867.007 1691.39 865.087 1697.78 853.06 1696.25 L 852.55 1694.94 C 854.986 1691.14 855.716 1691.13 860.025 1689.14 z M 863.904 1723.61 C 869.856 1721.39 874.6 1719.4 874.731 1711.99 L 873.263 1710.11 C 872.043 1710.1 870.97 1710.02 869.78 1710.19 C 863.876 1711.2 857.893 1711.58 858.915 1718.85 C 861.002 1721.56 860.903 1721.64 863.904 1723.61 z"/>
<path transform="translate(0,0)" fill="rgb(2,52,141)" d="M 1051.26 1710.34 C 1031.51 1700.54 1048.73 1684.44 1070.63 1690.76 C 1071.3 1698.94 1072.29 1719.75 1069.16 1726.74 L 1067.52 1727.74 C 1061.4 1723.77 1067.04 1716.31 1063.78 1711.01 C 1047.05 1713.67 1056.39 1722.7 1046.19 1728.52 L 1044.13 1727.22 C 1040.86 1720.31 1046.91 1714.54 1051.26 1710.34 z M 1064.45 1706.42 C 1065.15 1703.38 1064.9 1698.98 1064.87 1695.72 C 1059.14 1693.33 1053.7 1693.42 1049.4 1698.4 C 1048.63 1703.39 1050.75 1703.69 1054.94 1705.92 L 1064.45 1706.42 z"/>
<path transform="translate(0,0)" fill="rgb(2,52,141)" d="M 597.823 1689.17 C 602.215 1688.97 609.751 1688.25 613.063 1690.92 C 618.182 1695.04 618.834 1723.4 615.7 1727.74 C 611.808 1728.24 613.708 1726.17 611.069 1725.05 C 608.523 1723.97 603.908 1730.04 591.875 1726 C 582.299 1707.59 598.55 1709 609.029 1703.14 C 610.985 1699.91 610.581 1701.66 609.865 1697.61 C 606.124 1693.37 598.006 1697.62 590.904 1696.35 L 590.5 1694.96 C 593.087 1691.27 593.624 1691.25 597.823 1689.17 z M 598.046 1722.51 C 604.13 1722.39 609.209 1721.37 611.368 1714.92 C 611.182 1712.26 611.216 1712.21 610.37 1709.71 L 609.918 1709.32 C 605.167 1710.55 600.836 1711.12 597.188 1714.19 C 595.632 1717.97 595.726 1718.76 598.046 1722.51 z"/>
<path transform="translate(0,0)" fill="rgb(2,52,141)" d="M 1389.74 1689.09 C 1394.14 1688.92 1400.99 1688.07 1404.3 1691.1 C 1420.99 1706.36 1404.3 1742.3 1382.64 1723.65 C 1374.86 1705.23 1395.18 1708.61 1402.89 1701.97 C 1404.88 1691.99 1389.38 1695.9 1383.4 1695.8 L 1383.08 1694.46 C 1385.03 1691.46 1386.65 1690.89 1389.74 1689.09 z M 1394.78 1723.05 C 1399.71 1720.75 1404.91 1717.57 1403.33 1711.27 C 1400.54 1709.44 1402.11 1710.1 1398.15 1710.07 C 1392.88 1711.23 1387.1 1712.11 1388.04 1718.86 C 1390.5 1721.95 1391.08 1721.91 1394.78 1723.05 z"/>
<path transform="translate(0,0)" fill="rgb(2,52,141)" d="M 722.226 1688.34 L 726.515 1689.13 C 729.874 1693.04 728.467 1710.46 728.391 1716.45 C 731.731 1710.53 743.465 1687.3 751.332 1691.45 C 753.919 1696.63 753.765 1724.56 751.48 1728.15 L 747.796 1727.42 C 744.398 1723.69 745.872 1706.46 745.956 1700.58 C 741.339 1706.79 730.893 1726.74 723.96 1727.46 C 720.289 1723.27 722.01 1696.03 722.226 1688.34 z"/>
<path transform="translate(0,0)" fill="rgb(2,52,141)" d="M 931.218 1727.35 C 930.081 1719.74 928.238 1693.63 933.644 1688.7 L 934.851 1689.55 C 938.237 1697.51 937.157 1712.23 937.003 1721.33 L 953.451 1721.86 C 953.234 1715.38 950.997 1695.43 953.276 1690.37 L 955.217 1689.12 C 962.801 1691.06 957.741 1712.63 959.557 1720.49 C 961.753 1721.19 963.211 1721.08 963.752 1722.58 C 965.027 1726.11 964.888 1734.06 964.926 1737.93 L 963.877 1739.65 L 961.036 1740.28 L 959.712 1739.07 C 959.564 1734.77 959.922 1731.62 957.834 1727.95 C 955.483 1726.36 953.384 1726.85 950.444 1726.97 C 944.035 1727.05 937.626 1727.18 931.218 1727.35 z"/>
<path transform="translate(0,0)" fill="rgb(2,52,141)" d="M 1188.09 1688.39 C 1191.99 1688.96 1191.33 1688.29 1193.97 1690.44 C 1196.43 1698.25 1194.81 1708.53 1194.1 1716.9 C 1197.4 1711.29 1210.35 1688.87 1216.38 1689.58 C 1219.48 1693.67 1217.96 1720.04 1217.89 1727.32 C 1216.13 1727.08 1213.92 1727.22 1213.31 1726.14 C 1210.68 1721.43 1211.87 1706.26 1211.92 1700.61 C 1208.75 1705.87 1197.16 1728.46 1190.18 1725.48 C 1186.69 1718.88 1188.02 1696.88 1188.09 1688.39 z"/>
<path transform="translate(0,0)" fill="rgb(2,52,141)" d="M 970.487 1719.14 C 969.641 1716.48 969.115 1713.73 968.92 1710.95 C 967.174 1683.01 999.855 1679.2 999.65 1706.6 C 999.577 1716.33 976.324 1703.32 975.887 1715.03 C 974.247 1717.79 973.433 1717.77 970.487 1719.14 z M 988.246 1705.46 L 991.934 1704.89 C 993.749 1702.39 993.279 1703.79 993.042 1700.43 C 990 1695.34 988.928 1694.3 982.954 1693.69 C 979.638 1696.59 978.711 1697.1 976.586 1700.82 L 976.616 1703.17 C 980.328 1706.13 983.02 1705.4 988.246 1705.46 z"/>
<path transform="translate(0,0)" fill="rgb(2,52,141)" d="M 890.23 1688.5 C 893.18 1688.73 893.275 1688.53 895.825 1689.89 C 897.977 1693.86 897.1 1700.26 896.973 1705.15 L 913.035 1705.13 C 913.063 1698.94 911.235 1692.34 916.177 1688.46 L 917.891 1689.45 C 921.137 1696.83 920.019 1718.52 920.158 1728.19 C 917.574 1727.67 917.135 1727.61 914.721 1726.62 C 912.026 1722.31 912.949 1715.94 913.025 1710.51 C 907.752 1710.61 902.315 1710.85 897.03 1711.02 C 896.959 1715.91 897.471 1718.99 896.822 1724.12 C 894.665 1727.29 896.117 1726.31 892.256 1727.06 L 890.85 1725.79 C 889.644 1718.2 890.263 1697.65 890.23 1688.5 z"/>
<path transform="translate(0,0)" fill="rgb(2,52,141)" d="M 762.543 1688.73 C 766.048 1688.83 764.98 1688.42 767.98 1689.72 C 770.024 1694.29 769.1 1700.14 769.018 1705.63 C 774.548 1705.34 780.064 1705.4 785.601 1705.39 C 785.743 1699.55 783.556 1693.9 787.498 1689.43 C 790.667 1689.12 789.347 1688.66 791.741 1690.11 C 792.821 1696.26 792.074 1719.6 792.015 1727.53 C 789.338 1727.45 789.168 1727.71 786.973 1726.32 C 784.799 1721.53 785.176 1716.37 785.017 1710.98 L 769.132 1711.02 C 769.06 1715.58 769.534 1723.22 767.97 1727.07 C 765.649 1727.68 765.778 1727.54 763.503 1726.65 C 762.124 1720.29 762.527 1696.56 762.543 1688.73 z"/>
<path transform="translate(0,0)" fill="rgb(2,52,141)" d="M 1014.13 1689.44 C 1020.96 1689.31 1027.96 1689.37 1034.8 1689.35 C 1034.73 1695.96 1036.47 1726.94 1031.9 1728.44 C 1022.1 1723.41 1033.5 1700.99 1025.53 1693.7 C 1025.19 1693.79 1020.64 1695.04 1020.41 1695.54 C 1016.31 1704.34 1017.79 1715.73 1012.67 1724.29 C 1010.23 1728.36 1005.79 1729.21 1002.49 1725.53 C 1003.53 1720.96 1009.65 1718.6 1010.53 1714.63 C 1011.82 1708.81 1011.37 1694.13 1014.13 1689.44 z"/>
<path transform="translate(0,0)" fill="rgb(2,52,141)" d="M 820.134 1688.55 C 832.525 1689.32 824.272 1698.48 828.088 1705.16 C 836.806 1703.05 836.467 1690.8 844.955 1688.56 L 846.723 1689.95 C 845.551 1695.43 840.918 1702.8 837.806 1707.48 C 840.314 1710.74 842.834 1715 845.06 1718.53 C 846.258 1721.08 846.961 1722.69 847.964 1725.38 L 845.59 1727.43 C 835.373 1727.26 841.206 1710.54 827.598 1711.14 C 825.352 1716.42 828.677 1722.45 826.225 1726.92 L 822.794 1727.14 C 818.536 1722.15 820.058 1696.59 820.134 1688.55 z"/>
<path transform="translate(0,0)" fill="rgb(2,52,141)" d="M 1159.99 1708.23 C 1166.33 1703.31 1173.84 1689.03 1179.61 1688.61 C 1179.63 1695.68 1174.38 1702.05 1170.56 1707.95 L 1171.76 1709.68 C 1175.91 1715.01 1178.97 1717.84 1179.66 1724.45 L 1178.78 1726.82 C 1173.06 1727.47 1171.28 1720.69 1169.44 1716.16 C 1167.17 1713.38 1164.72 1709.96 1160.85 1710.85 C 1158.53 1715.94 1160.63 1720.73 1158.45 1727.09 L 1156.76 1727.64 L 1154.38 1726.02 C 1152.89 1719.88 1150.05 1690.68 1157.31 1688.83 L 1159.44 1690.35 C 1160.21 1694.41 1159.98 1703.63 1159.99 1708.23 z"/>
<path transform="translate(0,0)" fill="rgb(2,52,141)" d="M 692.619 1689.18 C 709.943 1687.7 717.121 1690.22 709.138 1707.48 C 712.128 1712.03 714.181 1714.72 714.114 1720.12 C 710.293 1730.08 686.845 1731.74 687.841 1720.99 L 689.384 1720.21 L 691.492 1721.29 C 697.603 1723.29 705.616 1724.45 707.21 1716.5 C 704.158 1707.73 696.497 1713.6 691.798 1709.22 L 692.299 1707.07 C 694.952 1704.91 699.225 1704.97 703.097 1704.43 C 706.045 1702.09 705.08 1703.53 706.136 1699.96 C 705.01 1695.99 706.082 1697.53 702.979 1695.06 C 694.271 1693.84 691.294 1696.54 683.134 1700.59 C 686.269 1694.94 687.223 1692.7 692.619 1689.18 z"/>
<path transform="translate(0,0)" fill="rgb(2,52,141)" d="M 1119.53 1699.53 C 1123.47 1688.94 1140.43 1682.29 1145.23 1697.28 L 1144.81 1698.95 C 1140.25 1698.79 1139.71 1694.47 1134.35 1694.99 C 1123.98 1695.99 1122.87 1714.72 1128.97 1720.75 C 1139.81 1724.05 1140.92 1713.42 1146.79 1719.98 C 1143.94 1730.56 1127.65 1730.2 1119.96 1721.07 C 1118.57 1712.48 1118.87 1707.96 1119.53 1699.53 z"/>
<path transform="translate(0,0)" fill="rgb(2,52,141)" d="M 1240.32 1703.93 L 1244.28 1696.65 C 1247.24 1691.1 1246.81 1689.92 1253.29 1689.42 C 1254.42 1693.63 1246.29 1702.5 1244.95 1707.08 C 1244.2 1709.63 1244.39 1708.11 1246.12 1711.78 C 1243.46 1714.62 1245.06 1713.72 1240.98 1714.32 C 1238.41 1715.81 1238.31 1715.62 1236.77 1718.09 C 1234.7 1721.77 1232.46 1727.27 1227.73 1727.05 C 1226.24 1721.52 1229.85 1717.56 1232.71 1712.94 C 1237.96 1703.17 1229.93 1703.16 1227.05 1690.67 L 1228.09 1689.44 L 1231.3 1689.77 C 1235.26 1692.7 1237.9 1699.25 1240.32 1703.93 z"/>
<path transform="translate(0,0)" fill="rgb(2,52,141)" d="M 1277.59 1689.51 C 1283.92 1689.41 1296.72 1688.78 1302.39 1689.97 C 1303.33 1693.03 1303.18 1691.45 1302.43 1694.89 C 1299.62 1696.57 1295.55 1695.78 1292.07 1695.54 L 1291.94 1717.59 C 1292.07 1720.75 1292.21 1722.36 1291.8 1725.56 C 1289.11 1727.56 1290.67 1726.9 1286.69 1726.81 C 1283.93 1722.83 1285.17 1701.3 1285.3 1695.35 C 1280.22 1695.92 1277.1 1696.85 1273.85 1692.51 C 1275.19 1689.82 1274.25 1691.02 1277.59 1689.51 z"/>
<path transform="translate(0,0)" fill="rgb(2,52,141)" d="M 636.394 1689.52 C 641.182 1688.98 645.616 1688.17 648.807 1692.35 L 647.72 1694.22 C 643.757 1696.86 640.045 1696.11 635.073 1696.01 C 633.734 1705.97 634.086 1715.7 634.41 1725.71 L 633.057 1727.46 C 630.354 1727.9 631.722 1727.96 628.956 1726.51 C 626.571 1721.1 627.542 1698.8 626.876 1690.06 L 636.394 1689.52 z"/>
<path transform="translate(0,0)" fill="rgb(2,52,141)" d="M 1246.12 1711.78 C 1249.39 1716.04 1253.01 1719.74 1253.64 1724.87 L 1252.65 1726.53 C 1246.34 1726.02 1243.74 1719.48 1240.98 1714.32 C 1245.06 1713.72 1243.46 1714.62 1246.12 1711.78 z"/>
<path transform="translate(0,0)" fill="rgb(2,52,141)" d="M 975.887 1715.03 C 978.937 1720.93 980.347 1721.49 986.575 1724.09 C 983.414 1726.7 983.567 1726.64 979.733 1728.03 C 974.441 1725.31 973.172 1724.28 970.487 1719.14 C 973.433 1717.77 974.247 1717.79 975.887 1715.03 z"/>
<path transform="translate(0,0)" fill="rgb(2,52,141)" d="M 986.575 1724.09 C 990.22 1722 991.147 1721.15 995.18 1720.57 L 997.077 1721.47 C 996.209 1729.19 985.408 1728.11 979.733 1728.03 C 983.567 1726.64 983.414 1726.7 986.575 1724.09 z"/>
</svg>